<?xml version="1.0" standalone="no"?>
<!DOCTYPE svg PUBLIC "-//W3C//DTD SVG 20010904//EN"
 "http://www.w3.org/TR/2001/REC-SVG-20010904/DTD/svg10.dtd">
<svg version="1.0" xmlns="http://www.w3.org/2000/svg"
 width="16" height="16" viewBox="0 0 980.000000 872.000000"
 preserveAspectRatio="xMidYMid meet">

<g transform="translate(0.000000,872.000000) scale(0.100000,-0.100000)"
fill="#333333" stroke="none">
<path d="M4335 8700 c-4 -6 -4 -28 0 -48 9 -55 -7 -87 -88 -171 -82 -87 -131
-171 -146 -253 -12 -70 -29 -104 -71 -143 l-32 -30 43 -5 c31 -4 47 -11 54
-26 18 -36 35 -52 67 -63 l30 -11 -7 55 c-7 62 -3 74 63 154 47 58 84 131 132
260 26 72 30 77 84 107 78 43 84 50 63 72 -12 11 -33 17 -65 17 -44 0 -47 2
-50 27 -2 15 -15 37 -29 48 -29 23 -39 25 -48 10z m-25 -292 c-1 -37 -36 -104
-81 -152 -23 -25 -45 -46 -49 -46 -24 0 41 146 85 193 31 33 45 34 45 5z"/>
<path d="M2959 8123 l-45 -26 -31 23 c-23 16 -39 21 -57 16 -33 -8 -33 -18 5
-73 34 -49 34 -55 4 -163 -26 -94 -16 -170 41 -303 19 -43 34 -88 34 -98 0
-11 -12 -42 -26 -70 -29 -59 -25 -71 14 -42 55 40 68 44 99 28 32 -17 79 -20
88 -5 3 5 -7 28 -22 51 -27 41 -28 49 -34 203 -6 131 -12 177 -32 246 l-26 84
45 70 c24 38 44 73 44 78 0 17 -57 6 -101 -19z m-19 -269 c13 -33 13 -227 1
-219 -6 3 -17 39 -26 81 -25 108 -4 216 25 138z"/>
<path d="M3823 7953 c-82 -127 -214 -470 -273 -703 -58 -235 -70 -374 -70
-849 0 -206 -2 -372 -5 -369 -3 3 -26 70 -51 149 -101 326 -227 840 -262 1075
l-18 119 -80 0 c-60 0 -93 -6 -136 -23 -90 -38 -93 -44 -79 -161 57 -468 274
-1199 597 -2009 58 -145 104 -265 102 -267 -2 -2 -35 42 -73 97 -191 276 -370
492 -580 703 -527 528 -1078 837 -1815 1019 -80 20 -166 39 -192 42 -44 6 -48
5 -57 -18 -8 -21 -51 -232 -64 -310 -5 -33 2 -36 183 -73 248 -52 584 -179
825 -312 618 -340 1125 -862 1516 -1558 134 -240 309 -621 309 -675 0 -21 -3
-22 -47 -16 -69 9 -134 45 -158 86 -14 24 -21 61 -25 120 -4 69 -8 85 -22 88
-12 2 -25 -12 -42 -47 -42 -82 -43 -116 -5 -207 69 -168 471 -954 707 -1384
227 -414 551 -844 912 -1214 435 -445 756 -689 1185 -901 371 -183 768 -306
1085 -334 149 -14 592 -14 740 0 566 52 1209 336 1587 702 180 174 283 355
283 496 0 59 -58 344 -99 486 -80 273 -192 467 -296 511 -94 39 -159 14 -406
-160 -487 -341 -888 -540 -1244 -616 -145 -31 -426 -39 -567 -15 -583 97
-1083 552 -1602 1457 -133 233 -248 454 -541 1036 -279 556 -298 586 -399 635
-75 37 -152 55 -168 39 -10 -10 4 -28 61 -81 l74 -69 -7 -53 c-8 -65 -24 -119
-36 -119 -22 0 -163 245 -284 495 -207 425 -327 812 -392 1270 -21 150 -30
598 -15 752 33 336 102 596 241 912 41 93 68 167 63 172 -16 16 -287 139 -305
139 -11 0 -33 -23 -55 -57z m872 -3778 c-9 -61 -74 -190 -129 -258 -92 -112
-258 -214 -422 -258 -66 -19 -108 -22 -259 -23 -171 -1 -184 0 -253 26 -73 26
-128 56 -119 64 2 2 33 -3 68 -11 93 -23 270 -30 370 -16 96 15 222 52 294 88
138 70 333 260 413 403 39 70 50 65 37 -15z"/>
<path d="M47 6818 c-3 -11 1 -34 9 -49 19 -38 19 -40 -21 -86 -51 -60 -48 -66
35 -58 68 7 73 6 148 -31 l77 -38 196 -11 c156 -8 201 -14 222 -28 14 -9 28
-17 30 -17 3 0 2 20 -1 45 -2 25 1 65 8 90 7 24 10 51 7 60 -6 13 -11 13 -47
-1 -40 -16 -44 -16 -132 11 -75 23 -117 29 -247 34 -86 4 -165 12 -177 19 -11
6 -33 27 -48 47 -31 40 -51 45 -59 13z m388 -142 c112 -29 121 -61 17 -60
-106 1 -196 34 -177 64 9 14 100 12 160 -4z"/>
</g>
</svg>
