<?xml version="1.0" standalone="no"?>
<!DOCTYPE svg PUBLIC "-//W3C//DTD SVG 20010904//EN"
 "http://www.w3.org/TR/2001/REC-SVG-20010904/DTD/svg10.dtd">
<svg version="1.0" xmlns="http://www.w3.org/2000/svg"
 width="16" height="16" viewBox="0 0 980.000000 980.000000"
 preserveAspectRatio="xMidYMid meet">

<g transform="translate(0.000000,980.000000) scale(0.100000,-0.100000)"
fill="#000000" stroke="none">
<path d="M7205 9790 c-526 -54 -1045 -246 -1520 -562 -506 -338 -871 -749
-1460 -1643 -98 -148 -181 -274 -186 -278 -4 -5 -26 10 -49 33 -75 75 -133 86
-218 44 -96 -48 -199 -198 -227 -331 -28 -131 -15 -420 26 -578 80 -312 305
-743 578 -1110 427 -572 1017 -1121 1558 -1448 287 -174 628 -322 835 -362
108 -21 391 -31 483 -17 142 23 307 130 359 234 40 81 33 131 -29 200 -19 21
-35 42 -35 46 0 5 51 33 112 63 l113 54 147 3 c228 6 349 -26 545 -142 460
-272 859 -822 1053 -1452 60 -195 85 -336 119 -689 6 -60 16 -126 21 -146 39
-142 238 -179 328 -61 l27 36 0 210 c-1 149 -6 245 -18 326 -81 530 -296 1032
-629 1472 -118 157 -377 418 -523 526 -119 89 -318 195 -472 253 -51 19 -93
39 -93 46 0 14 63 68 235 199 372 284 667 578 885 883 325 455 531 968 607
1506 24 178 24 552 0 715 -52 336 -142 606 -292 871 -110 195 -311 430 -508
596 -297 249 -691 417 -1131 484 -151 23 -498 33 -641 19z m630 -414 c410 -65
742 -233 1032 -523 298 -299 486 -709 524 -1149 12 -140 7 -420 -12 -594 -13
-129 -72 -362 -133 -535 -63 -177 -216 -483 -321 -640 -197 -296 -445 -565
-747 -807 -234 -189 -635 -460 -1326 -897 l-382 -242 -93 32 c-95 33 -250 101
-273 120 -11 9 -5 18 29 43 76 58 386 279 767 546 993 698 1279 915 1462 1109
569 605 790 1435 563 2117 -80 240 -205 435 -398 620 -387 373 -944 519 -1522
399 -510 -106 -961 -373 -1333 -788 -318 -355 -1119 -1436 -1453 -1959 -40
-64 -77 -117 -80 -117 -16 -2 -163 353 -156 373 20 51 713 1106 888 1351 380
532 665 823 1069 1090 365 242 836 421 1225 465 120 13 551 4 670 -14z m-236
-771 c149 -22 241 -49 356 -104 233 -111 444 -326 556 -567 168 -357 135 -892
-82 -1325 -136 -271 -323 -497 -594 -715 -227 -183 -777 -580 -1562 -1128
-407 -284 -534 -366 -570 -366 -29 0 -107 52 -129 85 -19 29 -54 -5 306 296
861 720 1497 1281 1731 1526 216 228 386 524 424 738 20 114 19 285 -1 383
-20 98 -58 174 -139 277 -119 153 -227 229 -400 281 -73 21 -117 27 -230 31
-204 7 -348 -23 -520 -109 -243 -122 -315 -197 -942 -978 -1075 -1339 -1194
-1485 -1210 -1485 -29 0 -213 258 -213 298 0 49 506 781 994 1437 609 820 836
1047 1251 1250 195 96 415 164 595 183 91 10 283 5 379 -8z m-226 -991 c76
-23 127 -56 189 -122 83 -90 93 -117 92 -247 0 -131 -23 -217 -89 -342 -108
-205 -283 -391 -775 -826 -467 -412 -1282 -1105 -1473 -1251 l-77 -59 -27 18
c-16 10 -101 91 -191 179 l-162 161 82 105 c46 58 260 326 477 595 217 270
565 704 775 965 495 618 545 671 706 754 182 93 321 114 473 70z"/>
<path d="M3205 6832 c-84 -52 -176 -193 -211 -327 -25 -94 -25 -323 -1 -447
89 -450 377 -983 812 -1503 680 -813 1563 -1425 2253 -1562 123 -24 364 -24
452 1 109 30 189 75 262 146 100 100 111 164 42 266 -45 67 -68 78 -145 71
-46 -4 -85 -17 -153 -51 l-91 -46 -140 0 c-77 0 -169 5 -205 11 -200 32 -553
197 -860 402 -609 408 -1204 1032 -1555 1631 -83 141 -190 369 -230 488 -46
139 -58 224 -53 391 l4 142 44 83 c36 66 45 94 48 146 4 62 3 65 -34 105 -20
23 -50 49 -65 57 -40 20 -137 18 -174 -4z"/>
<path d="M2652 6269 c-55 -27 -120 -101 -165 -186 -40 -77 -61 -150 -76 -273
-10 -84 -11 -86 -59 -130 -26 -25 -158 -119 -293 -211 -650 -440 -998 -734
-1291 -1090 -337 -411 -594 -937 -702 -1439 -49 -227 -60 -339 -60 -595 0
-256 10 -355 60 -585 111 -504 379 -937 784 -1264 622 -502 1522 -631 2407
-345 682 221 1274 650 1725 1251 101 134 283 408 451 679 81 129 162 253 181
275 l34 40 124 12 c218 21 333 65 434 167 104 103 111 190 24 288 -40 46 -93
62 -152 46 -24 -6 -95 -34 -158 -62 -109 -49 -119 -51 -195 -50 -286 4 -646
147 -1050 416 -698 465 -1346 1171 -1669 1816 -134 267 -195 468 -203 661 l-5
125 61 125 c34 69 61 138 61 155 0 56 -44 132 -96 165 -58 36 -111 39 -172 9z
m-163 -1048 c33 -64 121 -290 121 -310 0 -24 -62 -79 -220 -194 -219 -160
-521 -388 -643 -485 -347 -277 -552 -524 -726 -872 -325 -654 -312 -1359 37
-1885 69 -104 215 -262 317 -344 209 -167 482 -282 770 -326 129 -19 398 -19
535 0 416 59 803 235 1156 522 179 147 294 279 616 713 92 124 223 299 290
390 135 180 151 193 216 171 57 -20 239 -107 245 -118 11 -18 -310 -534 -467
-753 -310 -430 -577 -680 -988 -926 -337 -200 -675 -324 -1038 -379 -145 -22
-457 -30 -605 -16 -150 15 -331 51 -455 91 -130 42 -355 156 -470 237 -122 87
-354 319 -443 443 -80 113 -194 339 -237 469 -134 409 -133 927 1 1404 182
643 601 1227 1218 1695 181 138 724 512 743 512 4 0 16 -17 27 -39z m399 -773
c32 -46 77 -111 100 -144 l41 -62 -161 -136 c-416 -352 -736 -658 -838 -803
-193 -275 -265 -455 -277 -690 -10 -198 19 -325 101 -448 191 -283 414 -396
757 -382 214 8 421 76 599 197 120 81 337 318 756 822 l221 267 54 -36 c123
-81 279 -197 279 -206 0 -29 -114 -195 -383 -557 -362 -487 -507 -635 -793
-812 -317 -196 -579 -273 -929 -272 -342 1 -578 78 -792 258 -237 200 -361
407 -419 702 -25 122 -25 402 -1 533 74 400 281 781 583 1072 99 95 218 189
564 448 340 253 449 331 466 331 7 0 39 -37 72 -82z m679 -820 c162 -161 299
-300 303 -308 6 -11 -9 -35 -52 -85 -33 -39 -168 -198 -301 -355 -347 -410
-413 -484 -476 -533 -72 -56 -166 -108 -261 -143 -68 -25 -88 -28 -205 -29
-126 0 -132 1 -198 32 -85 40 -169 119 -204 192 -25 50 -28 67 -28 156 1 152
56 304 173 478 52 78 173 219 224 263 19 16 129 113 244 215 268 239 466 409
477 409 4 0 141 -132 304 -292z"/>
</g>
</svg>
