<svg width="16" height="16" viewBox="0 0 16 16" fill="none" xmlns="http://www.w3.org/2000/svg">
<path d="M8 0C3.584 0 0 3.584 0 8C0 12.416 3.584 16 8 16C12.416 16 16 12.416 16 8C16 3.584 12.416 0 8 0ZM8.8 1.656C11.256 1.96 13.256 3.672 14.032 5.944L8.8 2.92V1.656ZM4.8 2.464C5.744 1.912 7.464 1.616 7.2 1.648V7.528L4.8 8.912V2.464ZM2.104 10.48C1.784 9.712 1.6 8.88 1.6 8C1.6 6.384 2.208 4.912 3.2 3.784V9.848L2.104 10.48ZM2.912 11.864L8 8.92L10.4 10.304L4.816 13.528C4.07434 13.1092 3.42635 12.5429 2.912 11.864ZM8 14.4C7.568 14.4 7.144 14.352 6.736 14.272L12 11.232L13.088 11.856C11.92 13.4 10.08 14.4 8 14.4ZM8.8 7.536V4.768L14.4 8.008C14.4 8.888 14.216 9.72 13.896 10.48L8.8 7.536Z" fill="#333333"/>
</svg>
